<svg width="159" height="251" viewBox="0 0 159 251" fill="none" xmlns="http://www.w3.org/2000/svg">
<g clip-path="url(#clip0_4421_1749)">
<path d="M44.5892 66.8711H3.60352L43.1511 140.933H64.0035V103.543L44.5892 66.8711Z" fill="#15322D"/>
<path d="M153.884 10.0664H112.899L43.1509 140.933H84.1366L153.884 10.0664Z" fill="url(#paint0_linear_4421_1749)"/>
</g>
<path d="M37.0151 215.53C36.8304 217.882 37.3606 220.234 38.536 222.279C39.7114 224.323 41.4769 225.964 43.6007 226.984C49.5515 229.788 54.8092 228.238 59.6842 223.86L62.5336 227.102C62.4706 227.395 62.4841 227.579 62.3986 227.67C57.6451 232.781 48.7683 234.454 42.2322 231.488C35.3181 228.332 31.5954 221.661 32.3291 213.695C32.9818 206.618 38.1809 200.735 45.3067 199.022C49.6265 197.982 54.1809 198.666 58.0061 200.93C61.8312 203.193 64.6269 206.858 65.8017 211.148C66.6704 214.304 65.7791 215.512 62.4931 215.521C54.8407 215.521 47.1883 215.521 39.5359 215.521L37.0151 215.53ZM60.6745 211.216C59.2476 206.348 54.089 202.98 48.7593 203.192C43.7267 203.4 38.8562 206.97 37.9559 211.207L60.6745 211.216Z" fill="white"/>
<path d="M130.708 249.821L135.758 238.511C136.767 236.257 137.698 233.949 138.824 231.749C139.576 230.275 139.549 229.044 138.824 227.525C134.696 218.857 130.676 210.139 126.625 201.43C126.409 200.979 126.242 200.396 126.04 199.904C129.866 199.904 130.532 199.23 132.22 202.881C135.221 209.342 138.222 215.804 141.223 222.265C141.534 222.936 141.903 223.581 142.447 224.627C144.248 220.628 145.877 216.964 147.503 213.303C148.992 209.945 150.455 206.573 151.945 203.215C153.314 200.13 153.498 199.82 158.207 199.82C157.887 200.618 157.626 201.339 157.307 202.038C150.548 216.932 143.789 231.823 137.028 246.711C135.371 250.407 135.376 250.407 130.708 249.821Z" fill="white"/>
<path d="M110.731 232.065V203.841L105.113 203.598V199.721H110.704C110.704 196.8 110.672 194.064 110.704 191.323C110.771 186.207 114.246 182.835 119.292 183.006C122.133 183.101 124.316 184.3 125.698 187.194L122.65 189.534C122.22 189.021 121.757 188.538 121.264 188.087C119.103 186.356 115.777 187.51 115.588 190.196C115.372 193.239 115.538 196.309 115.538 199.627H122.448V203.684H115.588C115.538 204.765 115.471 205.568 115.471 206.388C115.471 213.97 115.471 221.553 115.471 229.135C115.471 232.498 115.471 232.502 112.18 232.335C111.692 232.272 111.208 232.182 110.731 232.065Z" fill="white"/>
<path d="M31.6044 199.834C29.5383 204.369 27.5937 208.651 25.6356 212.934C22.8942 218.938 20.1754 224.952 17.362 230.92C17.1831 231.248 16.9357 231.534 16.6367 231.758C16.3376 231.982 15.9939 232.139 15.6289 232.218C15.1383 232.277 14.2785 231.619 14.0354 231.078C9.41246 220.989 4.85701 210.874 0.292576 200.758C0.17099 200.4 -2.51494e-07 200.146 0 199.679C1.12535 199.663 2.02564 199.663 3.00244 199.663C4.50142 199.663 4.94705 200.114 5.44671 201.34C8.39063 208.48 11.4201 215.58 14.4495 222.693C14.7872 223.496 15.1563 224.28 15.701 225.488C16.2141 224.424 16.5472 223.793 16.8308 223.14C19.7117 216.462 22.5896 209.781 25.4645 203.098C27.022 199.401 27.022 199.401 31.6044 199.834Z" fill="white"/>
<path d="M75.282 232.168H70.9111V199.865H75.156C75.2325 200.952 75.309 202.033 75.4126 203.548C77.9739 200.136 81.0033 198.409 84.9691 198.626C87.7375 198.779 90.2267 199.568 92.4324 201.619L89.9342 204.837C87.5259 204.251 85.4057 203.255 83.3261 203.332C78.5455 203.517 75.345 207.452 75.291 212.712C75.2325 218.338 75.291 223.982 75.291 229.59L75.282 232.168Z" fill="white"/>
<path d="M101.161 232.186H96.8257V199.82H101.161V232.186Z" fill="white"/>
<path d="M102.119 189.457C102.149 190.284 101.853 191.089 101.296 191.699C100.739 192.31 99.9643 192.676 99.1396 192.721C98.729 192.73 98.3207 192.657 97.9388 192.505C97.5569 192.354 97.209 192.128 96.9154 191.841C96.6219 191.553 96.3887 191.21 96.2296 190.831C96.0704 190.451 95.9885 190.044 95.9886 189.633C95.977 189.23 96.0448 188.83 96.188 188.453C96.3312 188.077 96.5469 187.733 96.823 187.44C97.0991 187.147 97.4301 186.911 97.797 186.747C98.164 186.582 98.5598 186.491 98.9617 186.48C99.3637 186.468 99.764 186.536 100.14 186.679C100.516 186.823 100.86 187.039 101.152 187.315C101.444 187.592 101.679 187.923 101.844 188.291C102.008 188.658 102.099 189.055 102.11 189.457H102.119Z" fill="white"/>
<defs>
<linearGradient id="paint0_linear_4421_1749" x1="98.5176" y1="10.0664" x2="98.5176" y2="140.933" gradientUnits="userSpaceOnUse">
<stop offset="0.0987119" stop-color="#15322D"/>
<stop offset="0.519927" stop-color="#16C996"/>
<stop offset="0.944408" stop-color="#EEE95A"/>
</linearGradient>
<clipPath id="clip0_4421_1749">
<rect width="151" height="151" fill="white" transform="translate(3.60352)"/>
</clipPath>
</defs>
</svg>
