<svg width="158" height="64" viewBox="0 0 158 64" fill="none" xmlns="http://www.w3.org/2000/svg">
<g clip-path="url(#clip0_4793_1339)">
<g clip-path="url(#clip1_4793_1339)">
<path d="M15.5818 25.2084H0L15.035 53.1273H22.9626V39.0323L15.5818 25.2084Z" fill="#15322D"/>
<path d="M57.1331 3.7948H41.5514L15.035 53.1273H30.6168L57.1331 3.7948Z" fill="url(#paint0_linear_4793_1339)"/>
</g>
<path d="M80.7221 42.169C80.6044 43.6538 80.9424 45.1392 81.6919 46.43C82.4414 47.7207 83.5672 48.7564 84.9214 49.4009C88.716 51.1712 92.0685 50.1921 95.1771 47.4286L96.994 49.4749C96.9538 49.6599 96.9624 49.7766 96.9079 49.8335C93.8768 53.061 88.2166 54.1169 84.0488 52.2442C79.64 50.2519 77.2663 46.0397 77.7341 41.0106C78.1503 36.5422 81.4655 32.8281 86.0093 31.7465C88.7638 31.0899 91.6679 31.5218 94.107 32.9507C96.5461 34.3796 98.3288 36.6934 99.0779 39.4026C99.6318 41.3948 99.0635 42.1576 96.9682 42.1633C92.0886 42.1633 87.2091 42.1633 82.3295 42.1633L80.7221 42.169ZM95.8086 39.4452C94.8987 36.3714 91.6093 34.2454 88.2108 34.3792C85.0018 34.5101 81.8961 36.7642 81.322 39.4396L95.8086 39.4452Z" fill="black"/>
<path d="M140.465 63.8192L143.686 56.6784C144.329 55.2553 144.923 53.7981 145.64 52.4092C146.12 51.4785 146.103 50.7015 145.64 49.7424C143.008 44.2693 140.445 38.765 137.862 33.2663C137.724 32.9817 137.618 32.6135 137.489 32.3032C139.928 32.3032 140.353 31.8774 141.43 34.1827C143.343 38.2622 145.257 42.3416 147.17 46.421C147.368 46.8451 147.604 47.2521 147.951 47.9123C149.099 45.3879 150.138 43.074 151.174 40.7629C152.124 38.6426 153.057 36.5137 154.007 34.3934C154.88 32.4455 154.997 32.2502 158 32.2502C157.796 32.754 157.63 33.2094 157.426 33.6505C153.117 43.0541 148.806 52.4557 144.495 61.8554C143.439 64.1892 143.442 64.1892 140.465 63.8192Z" fill="black"/>
<path d="M127.727 52.6085V34.789L124.144 34.6353V32.1877H127.709C127.709 30.3434 127.689 28.6158 127.709 26.8854C127.752 23.655 129.968 21.5262 133.186 21.6343C134.997 21.6941 136.389 22.4511 137.27 24.2783L135.327 25.7555C135.053 25.4321 134.758 25.1269 134.443 24.8419C133.065 23.749 130.944 24.4776 130.824 26.1738C130.686 28.095 130.792 30.0332 130.792 32.1279H135.198V34.6894H130.824C130.792 35.3725 130.749 35.8791 130.749 36.3971C130.749 41.1842 130.749 45.9713 130.749 50.7585C130.749 52.8817 130.749 52.8845 128.651 52.7792C128.34 52.7395 128.031 52.6825 127.727 52.6085Z" fill="black"/>
<path d="M77.272 32.2588C75.9545 35.1219 74.7145 37.8257 73.4659 40.5295C71.7179 44.3205 69.9842 48.1173 68.1903 51.8855C68.0762 52.0928 67.9185 52.2732 67.7278 52.4147C67.5371 52.5561 67.3179 52.6552 67.0852 52.7052C66.7723 52.7422 66.2241 52.3266 66.0691 51.9851C63.1213 45.6155 60.2165 39.2289 57.306 32.8422C57.2285 32.616 57.1194 32.4558 57.1194 32.1609C57.837 32.1506 58.4111 32.1506 59.0339 32.1506C59.9898 32.1506 60.2739 32.4352 60.5925 33.2094C62.4697 37.7176 64.4015 42.2002 66.3332 46.6914C66.5485 47.198 66.7838 47.6932 67.1311 48.4559C67.4584 47.7843 67.6708 47.3858 67.8516 46.9731C69.6886 42.7571 71.5237 38.5392 73.3569 34.3193C74.35 31.9855 74.35 31.9855 77.272 32.2588Z" fill="black"/>
<path d="M105.123 52.6739H102.336V32.2787H105.043C105.091 32.9646 105.14 33.6477 105.206 34.604C106.839 32.4495 108.771 31.3594 111.3 31.4961C113.065 31.5928 114.652 32.0909 116.059 33.3859L114.466 35.418C112.93 35.048 111.578 34.419 110.252 34.4674C107.204 34.5841 105.163 37.0687 105.129 40.3901C105.091 43.9421 105.129 47.5054 105.129 51.0459L105.123 52.6739Z" fill="black"/>
<path d="M121.624 52.6853H118.86V32.2502H121.624V52.6853Z" fill="black"/>
<path d="M122.236 25.7071C122.255 26.2289 122.066 26.7373 121.711 27.1226C121.355 27.508 120.862 27.7396 120.336 27.7676C120.074 27.7733 119.814 27.7271 119.57 27.6317C119.327 27.5363 119.105 27.3936 118.918 27.2119C118.73 27.0303 118.582 26.8135 118.48 26.5741C118.379 26.3348 118.326 26.0777 118.326 25.8181C118.319 25.5639 118.362 25.3108 118.454 25.0732C118.545 24.8356 118.683 24.6182 118.859 24.4333C119.035 24.2484 119.246 24.0998 119.48 23.9958C119.714 23.8918 119.966 23.8345 120.222 23.8272C120.479 23.8199 120.734 23.8628 120.974 23.9533C121.213 24.0438 121.432 24.1803 121.619 24.3548C121.805 24.5294 121.955 24.7386 122.06 24.9707C122.165 25.2027 122.223 25.4529 122.23 25.7071H122.236Z" fill="black"/>
</g>
<defs>
<linearGradient id="paint0_linear_4793_1339" x1="36.0841" y1="3.7948" x2="36.0841" y2="53.1273" gradientUnits="userSpaceOnUse">
<stop offset="0.0987119" stop-color="#15322D"/>
<stop offset="0.519927" stop-color="#16C996"/>
<stop offset="0.944408" stop-color="#EEE95A"/>
</linearGradient>
<clipPath id="clip0_4793_1339">
<rect width="158" height="64" fill="white"/>
</clipPath>
<clipPath id="clip1_4793_1339">
<rect width="57.4065" height="56.9221" fill="white"/>
</clipPath>
</defs>
</svg>
